<svg id="Layer_1" data-name="Layer 1" xmlns="http://www.w3.org/2000/svg" viewBox="0 0 116 86"><defs><style>.cls-1{fill:#edf4f0;}.cls-2{fill:#93c47d;}</style></defs><rect class="cls-1" x="3" y="3" width="110" height="80" rx="4"/><path class="cls-2" d="M53.94,55.51,73.4,36.06,70.24,33l-16.3,16.3L45.69,41,42.6,44.1ZM58,70.5a26.53,26.53,0,0,1-10.66-2.17A27.71,27.71,0,0,1,32.67,53.66a27.42,27.42,0,0,1,0-21.38,27.43,27.43,0,0,1,5.91-8.74,28.26,28.26,0,0,1,8.76-5.87,27.42,27.42,0,0,1,21.38,0A27.31,27.31,0,0,1,83.33,32.28a27.42,27.42,0,0,1,0,21.38,28.26,28.26,0,0,1-5.87,8.76,27.43,27.43,0,0,1-8.74,5.91A26.65,26.65,0,0,1,58,70.5Zm0-4.13a22.5,22.5,0,0,0,16.57-6.84A22.56,22.56,0,0,0,81.37,43,23.22,23.22,0,0,0,58,19.63,23.3,23.3,0,0,0,34.62,43a22.53,22.53,0,0,0,6.85,16.53A22.52,22.52,0,0,0,58,66.37Z"/></svg>