<svg id="Layer_1" data-name="Layer 1" xmlns="http://www.w3.org/2000/svg" viewBox="0 0 116 86"><defs><style>.cls-1{fill:#f4efef;}.cls-2{fill:#eb9999;}</style></defs><rect class="cls-1" x="3" y="3" width="110" height="80" rx="4.59"/><path class="cls-2" d="M47.69,56.2,58,45.89,68.31,56.2l2.89-2.89L60.89,43,71.2,32.69,68.31,29.8,58,40.11,47.69,29.8,44.8,32.69,55.11,43,44.8,53.31ZM58,70.5a26.53,26.53,0,0,1-10.66-2.17A27.71,27.71,0,0,1,32.67,53.66a27.42,27.42,0,0,1,0-21.38,27.43,27.43,0,0,1,5.91-8.74,28.26,28.26,0,0,1,8.76-5.87,27.44,27.44,0,0,1,21.39,0,27.34,27.34,0,0,1,14.6,14.61,27.42,27.42,0,0,1,0,21.38,28.26,28.26,0,0,1-5.87,8.76,27.43,27.43,0,0,1-8.74,5.91A26.65,26.65,0,0,1,58,70.5Zm0-4.12a22.51,22.51,0,0,0,16.57-6.85A22.57,22.57,0,0,0,81.38,43,23.25,23.25,0,0,0,58,19.62,23.3,23.3,0,0,0,34.63,43a22.52,22.52,0,0,0,6.84,16.53A22.53,22.53,0,0,0,58,66.38Z"/></svg>