<svg id="Layer_1" data-name="Layer 1" xmlns="http://www.w3.org/2000/svg" viewBox="0 0 125 86"><defs><style>.cls-1{font-size:23px;font-family:Mina-Bold, Mina;font-weight:700;}.cls-1,.cls-2{fill:#adac9f;}</style></defs><text class="cls-1" transform="translate(12.37 47.92)">Species 9</text><path class="cls-2" d="M117.35,3H7.65A4.89,4.89,0,0,0,2.5,7.59V78.41A4.89,4.89,0,0,0,7.65,83h109.7a4.89,4.89,0,0,0,5.15-4.59V7.59A4.89,4.89,0,0,0,117.35,3ZM118,74.41A4.89,4.89,0,0,1,112.87,79H12.13A4.89,4.89,0,0,1,7,74.41V11.59A4.89,4.89,0,0,1,12.13,7H112.87A4.89,4.89,0,0,1,118,11.59Z"/></svg>